<svg id="Capa_1" enable-background="new 0 0 512 512" height="512" viewBox="0 0 512 512" width="512"
    xmlns="http://www.w3.org/2000/svg">
    <g>
        <path d="m30 497c0 8.284 6.716 15 15 15h121c8.284 0 15-6.716 15-15v-43.847c21.172 3.404 35.195 13.95 50.979 25.831 23.689 17.832 45.685 33.016 84.021 33.016h181c4.619 0 8.98-2.128 11.823-5.769 2.842-3.641 3.849-8.388 2.729-12.869l-4.534-18.135c-16.608-66.433-77.408-113.227-146.042-113.227-.817 0-1.054.006-1.788.006-53.051 0-101.561-40.342-115.525-96.2l-3.111-12.444c-1.183-4.732-4.593-8.594-9.143-10.353-4.549-1.759-9.671-1.196-13.729 1.51l-11.065 7.376c-45.813 30.542-104.456 38.345-156.872 20.874-5.391-1.797-11.333-.394-15.35 3.624-22.179 22.18-34.393 51.668-34.393 83.033v5.147c0 29.227 10.61 56.82 30 78.392zm0-133.473c29.297 6.002 52.483 29.205 58.483 58.473h-36.984c-13.906-15.918-21.499-36.09-21.499-57.426zm30 118.473v-30h91v30zm417.787 0h-161.787c-18.285 0-31.588-4.609-43.523-11.465 5.098-19.359 22.81-33.535 43.523-33.535 29.266 0 55.474-17.05 67.724-42.766 44.921 8.779 82.625 42.876 94.063 87.766zm-428.089-177.872c56.177 15.78 117.425 7.337 167.061-23.115 2.344 7.682 5.268 15.171 8.704 22.402l-21.331 11.213c-7.333 3.854-10.152 12.924-6.298 20.257s12.923 10.152 20.257 6.298l22.701-11.933c6.063 8.368 12.908 16.136 20.436 23.154l-29.17 15.333c-7.333 3.854-10.153 12.924-6.298 20.257 3.861 7.346 12.936 10.147 20.256 6.299l41.835-21.99c19.132 11.213 40.347 17.88 61.975 19.379-8.353 9.49-20.567 15.318-33.826 15.318-30.766 0-57.563 18.776-69.044 45.713-19.834-14.861-42.774-30.713-80.956-30.713h-47.063c-6.421-45.12-41.42-80.45-85.1-88.323 3.291-10.728 8.642-20.741 15.861-29.549z"/>
        <path d="m60 105v60c0 8.284 6.716 15 15 15h166v46c0 8.284 6.716 15 15 15h180c8.284 0 15-6.716 15-15 0-14.838 0-106.408 0-121 0-8.284-6.716-15-15-15h-361c-8.284 0-15 6.716-15 15zm211 75h30v31h-30zm90 0v31h-30v-31zm30 31v-31h30v31zm-301-91h331v30h-331z"/>
        <path d="m437 272c-8.284 0-15 6.716-15 15s6.716 15 15 15h15v15c0 8.284 6.716 15 15 15s15-6.716 15-15v-15h15c8.284 0 15-6.716 15-15s-6.716-15-15-15h-15v-15c0-8.284-6.716-15-15-15s-15 6.716-15 15v15z"/>
        <path d="m15 60h15v15c0 8.284 6.716 15 15 15s15-6.716 15-15v-15h15c8.284 0 15-6.716 15-15s-6.716-15-15-15h-15v-15c0-8.284-6.716-15-15-15s-15 6.716-15 15v15h-15c-8.284 0-15 6.716-15 15s6.716 15 15 15z"/>
        <circle cx="376" cy="317" r="15"/>
        <circle cx="135" cy="15" r="15"/>
    </g>
</svg>