<svg id="Capa_1" enable-background="new 0 0 512 512" height="512" viewBox="0 0 512 512" width="512"
    xmlns="http://www.w3.org/2000/svg">
    <g>
        <path d="m487.124 370.292-256.583-128.292h-48.541v45c0 8.271-6.729 15-15 15h-62c-8.271 0-15-6.729-15-15v-45h-45c-24.813 0-45 20.187-45 45v225h182v-38.787l38.787 38.787h246.213c24.813 0 45-20.187 45-45v-56.459c0-17.155-9.532-32.578-24.876-40.249zm-442.124-98.292h15v15c0 24.813 20.187 45 45 45h62c24.813 0 45-20.187 45-45v-15h11.459l32.234 16.117-15.557 31.896 26.965 13.151 15.427-31.63 26.834 13.417-15.297 31.364 26.963 13.151 15.168-31.098 26.834 13.417-15.037 30.833 26.964 13.151 14.907-30.566 83.844 41.922c5.114 2.557 8.292 7.698 8.292 13.416v11.459h-452v-135c0-8.271 6.729-15 15-15zm-15 210v-30h122v30zm437 0h-233.787l-30-30h278.787v15c0 8.271-6.729 15-15 15z" />
        <path d="m121 182h270v-90h30v-92h-330v92h30zm30-90h30v60h-30zm150 0v60h-30v-60zm-60 60h-30v-60h30zm120 0h-30v-60h30zm-240-122h270v32h-270z" />
        <path d="m481.999 151.833-29.998.334.332 29.833h-30.333v30h30.666l.335 30.167 29.998-.334-.332-29.833h29.333v-30h-29.666z" />
        <path d="m30 212h30v-30h30v-30h-30v-30h-30v30h-30v30h30z" />
        <path d="m482 62h30v30h-30z" />
        <path d="m0 62h30v30h-30z" />
    </g>
</svg>